<svg xmlns="http://www.w3.org/2000/svg" width="1922" height="1381" viewBox="0 0 1922 1381">
    <defs>
        <linearGradient id="a" x1="50.268%" x2="50%" y1="-281.261%" y2="97.753%">
            <stop offset="0%" stop-color="#CBE6F9"/>
            <stop offset="38.026%" stop-color="#CDE8FB"/>
            <stop offset="68.036%" stop-color="#D3EDFC"/>
            <stop offset="100%" stop-color="#FFF"/>
        </linearGradient>
        <linearGradient id="b" x1="50%" x2="50%" y1="0%" y2="100%">
            <stop offset="0%" stop-color="#FFF"/>
            <stop offset="100%" stop-color="#FFF" stop-opacity="0"/>
        </linearGradient>
        <linearGradient id="c" x1="53.926%" x2="55.529%" y1="8.847%" y2="39.373%">
            <stop offset="0%" stop-color="#FFF"/>
            <stop offset="100%" stop-color="#FFF" stop-opacity="0"/>
        </linearGradient>
    </defs>
    <g fill="none" fill-rule="evenodd">
        <path fill="url(#a)" d="M0 0h1921v788H0z"/>
        <path fill="url(#b)" d="M1332.529 600.417A191.788 191.788 0 0 1 1307.89 602C1203.017 602 1118 517.027 1118 412.207c0-104.82 85.017-189.793 189.89-189.793 20.55 0 40.337 3.262 58.872 9.298a47.37 47.37 0 0 1-2.498-15.23c0-26.204 21.254-47.448 47.473-47.448 17.4 0 32.613 9.357 40.879 23.31a63.39 63.39 0 0 1 22.84-7.856c4.296-13.84 11.58-26.364 21.101-36.82-8.648-14.59-13.612-31.618-13.612-49.806 0-54.048 43.837-97.862 97.913-97.862 45.606 0 83.93 31.165 94.815 73.35 27.135 5.82 50.096 22.878 63.77 46.061a26.415 26.415 0 0 1 13.768-3.846c14.65 0 26.528 11.871 26.528 26.515 0 1.771-.174 3.502-.505 5.176 19.703 10.85 33.052 31.808 33.052 55.882 0 11.45-3.02 22.197-8.308 31.485 2.74-.23 5.51-.347 8.308-.347 51.94 0 94.432 40.42 97.71 91.505l12.004 8.737v266.95h-588.015l-1.456-1.051z" transform="translate(0 92)"/>
        <path fill="url(#c)" d="M709.534 515.912c-.27-3.334-.408-6.705-.408-10.109 0-54.527 35.32-100.802 84.32-117.177a24.733 24.733 0 0 1-.002-.312c0-13.31 10.786-24.1 24.091-24.1 9.88 0 18.372 5.95 22.089 14.464 14.176-15.287 34.051-25.213 56.245-26.396C918.407 328.112 950.525 313 986.171 313c32.834 0 62.674 12.822 84.79 33.733 33.183 4.183 59.64 29.972 64.846 62.838 39.204 2.62 70.193 35.261 70.193 75.144 0 5.869-.67 11.58-1.94 17.062V834H709V515.953l.534-.041z" transform="translate(0 92)"/>
        <path fill="url(#b)" d="M105.24 611.987C45.86 604.295 0 553.731 0 492.5c0-60.561 44.862-110.688 103.296-119.22a77.493 77.493 0 0 1-.296-6.78c0-33.04 20.946-61.188 50.283-71.89C155.165 281.82 166.186 272 179.5 272c2.009 0 3.965.224 5.846.647C187.97 252.533 205.171 237 226 237c2.02 0 4.005.146 5.947.428C237.735 200.914 269.357 173 307.5 173c42.25 0 76.5 34.25 76.5 76.5 0 15.086-4.367 29.152-11.905 41.003 16.367 8.736 28.492 24.377 32.486 43.032l1.419 1.5V613H106.007c-.344 0-.6-.338-.767-1.013z" transform="matrix(-1 0 0 1 406 92)"/>
        <g>
            <path fill="#DBF3B3" d="M319.906 576.96c119.768-42.094 605.885-22.376 806.477 61.234 53.58-42.094 573.335-190.227 876.726 14.719 202.262 136.63 202.262 319.97 0 550.019H-120v-422.29C93.425 672.917 240.06 605.023 319.906 576.96z"/>
            <path fill="#6FC471" d="M-170 720.413c345.64-46.531 596.63-77.416 752.969-92.656 234.508-22.86 1058.375-100.188 1266.539 263.945 138.776 242.755 118.354 354.336-61.266 334.742H-170v-506.03z"/>
            <path fill="#5BAE5C" d="M2638.238 734.413c-345.64-46.531-596.63-77.416-752.969-92.656-234.507-22.86-1058.375-100.188-1266.539 263.945-138.776 242.755-118.354 354.336 61.266 334.742h1958.242v-506.03z"/>
            <path fill="#519B50" d="M-34 1002.39c299.666-120.009 545.333-190.58 737-211.716 287.5-31.703 1039.984-28.307 1248.148 335.826 138.776 242.755 129.808 328.07-26.906 255.944H-34v-380.053z"/>
        </g>
    </g>
</svg>
